<?xml version="1.0" encoding="utf-8"?>
<!-- Generator: Adobe Illustrator 23.0.1, SVG Export Plug-In . SVG Version: 6.00 Build 0)  -->
<svg version="1.1" id="Layer_1" xmlns="http://www.w3.org/2000/svg" xmlns:xlink="http://www.w3.org/1999/xlink" x="0px" y="0px"
	 viewBox="0 0 359.1 413.8" style="enable-background:new 0 0 359.1 413.8;" xml:space="preserve">
<style type="text/css">
	.st0{fill:#E8BA64;}
	.st1{fill:#EDC472;}
</style>
<path class="st0" d="M359,396.7l-8.3-61.4V15c0-5.7-3.1-10.9-8.1-13.4c-5-2.5-10.9-2-15.3,1.4l-22.5,17.3L282.3,3
	c-5.2-4-12.4-4-17.6,0l-22.5,17.3L219.6,3c-5.2-4-12.4-4-17.6,0l-22.5,17.3L157,3c-5.2-4-12.4-4-17.6,0L117,20.3L94.4,3
	c-5.2-4-12.4-4-17.6,0L54.3,20.3L31.8,3c-4.4-3.4-10.4-4-15.3-1.4c-5,2.5-8.1,7.7-8.1,13.4v320.3l-8.3,61.4
	c-0.6,4.3,0.7,8.6,3.5,11.9s6.8,5.1,11,5.1h329.8c4.2,0,8.3-1.9,11-5.1C358.3,405.3,359.6,401,359,396.7z"/>
<path class="st1" d="M179.6,20.3L157,3c-5.2-4-12.4-4-17.6,0L117,20.3L94.4,3c-5.2-4-12.4-4-17.6,0L54.3,20.3L31.8,3
	c-4.4-3.4-10.4-4-15.3-1.4c-5,2.5-8.1,7.7-8.1,13.4v320.3l-8.3,61.4c-0.6,4.3,0.7,8.6,3.5,11.9c2.8,3.3,6.8,5.1,11,5.1h164.9
	L179.6,20.3z"/>
</svg>
