<?xml version="1.0" encoding="iso-8859-1"?>
<!-- Generator: Adobe Illustrator 19.0.0, SVG Export Plug-In . SVG Version: 6.00 Build 0)  -->
<svg version="1.1" id="Layer_1" xmlns="http://www.w3.org/2000/svg" xmlns:xlink="http://www.w3.org/1999/xlink" x="0px" y="0px"
	 viewBox="0 0 512 512" style="enable-background:new 0 0 512 512;" xml:space="preserve">
<path style="fill:#F5B96E;" d="M495.319,278.741c-17.173,17.12-41.019,27.547-67.303,27.029
	c-48.069-0.948-87.856-39.119-90.671-87.115c-1.13-19.256,3.639-37.318,12.649-52.582c3.883-6.577,4.995-14.352,3.209-21.777
	c-1.339-5.568-2.049-11.381-2.049-17.36c0-27.201,14.681-50.96,36.547-63.816c5.763-3.389,5.908-11.695,0.218-15.205
	c-37.834-23.347-82.342-36.917-130.002-37.183C118.562,9.951,5.984,121.76,5.851,261.119C5.719,399.654,117.983,512,256.488,512
	c130.892,0,238.331-100.341,249.634-228.296C506.643,277.802,499.515,274.557,495.319,278.741z"/>
<path style="opacity:0.1;enable-background:new    ;" d="M257.62,102.866c25.756,0,46.636-20.88,46.636-46.636
	c0-21.744-14.882-40.012-35.016-45.176c-3.753-0.188-7.526-0.303-11.321-0.324c-3.819-0.021-7.615,0.057-11.392,0.203
	c-20.398,4.979-35.542,23.365-35.542,45.297C210.984,81.987,231.863,102.866,257.62,102.866z M433.788,433.082
	c-0.895-26.949-23.008-48.524-50.174-48.524c-27.734,0-50.217,22.483-50.217,50.217c0,19.169,10.744,35.825,26.536,44.287
	c-28.85,11.59-60.344,17.99-93.342,17.99c-56.437,0-108.515-18.658-150.409-50.136c12.552-8.357,20.826-22.631,20.826-38.841
	c0-25.756-20.88-46.636-46.636-46.636c-14.772,0-27.931,6.876-36.476,17.594C29.821,340.5,15.909,294.964,15.955,246.17
	c0.029-30.573,5.477-59.815,15.43-86.835c8.401,15.986,25.158,26.895,44.471,26.895c27.734,0,50.217-22.483,50.217-50.217
	c0-27.263-21.73-49.436-48.813-50.181C33.109,130.909,5.917,192.686,5.851,261.119C5.719,399.654,117.983,512,256.488,512
	c89.751,0,168.469-47.181,212.735-118.088l0,0C458.813,408.19,446.918,421.31,433.788,433.082z"/>
<circle style="opacity:0.1;enable-background:new    ;" cx="217.38" cy="346.61" r="33.892"/>
<g>
	<circle style="fill:#8D6A59;" cx="81.04" cy="128.51" r="50.22"/>
	<circle style="fill:#8D6A59;" cx="387.26" cy="424.96" r="50.22"/>
	<circle style="fill:#8D6A59;" cx="265.48" cy="46.636" r="46.636"/>
	<circle style="fill:#8D6A59;" cx="220.31" cy="340.85" r="33.892"/>
	<circle style="fill:#8D6A59;" cx="93.31" cy="400.23" r="46.636"/>
</g>
<path style="fill:#E3637B;" d="M275.309,220.931c-10.395,0-18.821-8.426-18.821-18.821c0,10.395-8.426,18.821-18.821,18.821
	c-5.626,0-10.66-2.481-14.109-6.394v27.967c0,18.187,14.743,32.93,32.93,32.93s32.93-14.743,32.93-32.93v-27.967
	C285.969,218.449,280.934,220.931,275.309,220.931z"/>
<path style="fill:#FFFFFF;" d="M256.488,246.414c-11.637,0-22.251,3.388-30.32,8.958c5.011,11.792,16.699,20.062,30.32,20.062
	s25.309-8.27,30.32-20.062C278.739,249.802,268.124,246.414,256.488,246.414z"/>
<path style="fill:#E3637B;" d="M156.065,247.006h-32.238c-4.142,0-7.5-3.358-7.5-7.5s3.358-7.5,7.5-7.5h32.238
	c4.142,0,7.5,3.358,7.5,7.5S160.207,247.006,156.065,247.006z"/>
<g>
	<path style="fill:#394049;" d="M275.309,228.431c-7.368,0-14.038-3.043-18.821-7.939c-4.782,4.896-11.453,7.939-18.821,7.939
		c-14.513,0-26.321-11.808-26.321-26.321c0-4.142,3.358-7.5,7.5-7.5s7.5,3.358,7.5,7.5c0,6.242,5.079,11.321,11.321,11.321
		s11.321-5.079,11.321-11.321c0-4.142,3.358-7.5,7.5-7.5s7.5,3.358,7.5,7.5c0,6.242,5.078,11.321,11.32,11.321
		s11.32-5.079,11.32-11.321c0-4.142,3.357-7.5,7.5-7.5s7.5,3.358,7.5,7.5C301.629,216.623,289.821,228.431,275.309,228.431z"/>
	<path style="fill:#394049;" d="M139.947,209.61c-4.142,0-7.5-3.358-7.5-7.5v-20.489c0-4.142,3.358-7.5,7.5-7.5s7.5,3.358,7.5,7.5
		v20.489C147.447,206.252,144.089,209.61,139.947,209.61z"/>
</g>
<g style="opacity:0.1;">
	<path d="M240.401,436.577c-1.595,0-3.203-0.507-4.566-1.554c-3.284-2.525-3.9-7.233-1.375-10.517
		c12.656-16.463,38.975-24.815,57.471-18.239c3.902,1.388,5.941,5.676,4.554,9.579c-1.387,3.903-5.675,5.941-9.579,4.554
		c-12.482-4.439-31.812,1.875-40.553,13.248C244.875,435.568,242.65,436.577,240.401,436.577z"/>
	<path d="M81.042,308.452c-2.981,0-5.799-1.788-6.97-4.726c-7.06-17.716-13.484-19.675-19.152-21.404
		c-1.551-0.473-3.154-0.962-4.759-1.695c-3.768-1.721-5.427-6.17-3.705-9.938c1.721-3.768,6.172-5.426,9.938-3.706
		c0.7,0.32,1.721,0.631,2.903,0.992c9.605,2.93,19.734,7.675,28.71,30.199c1.533,3.848-0.343,8.21-4.191,9.744
		C82.905,308.28,81.966,308.452,81.042,308.452z"/>
	<path d="M231.757,130.456c-1.502,0-3.018-0.449-4.335-1.385c-5.492-3.899-14.355-6.001-23.737-8.227
		c-9.845-2.335-20.025-4.75-28.792-9.697c-3.607-2.035-4.882-6.61-2.846-10.217c2.035-3.608,6.61-4.883,10.217-2.846
		c6.92,3.905,16.052,6.07,24.883,8.165c10.366,2.459,21.085,5.002,28.959,10.59c3.377,2.398,4.171,7.079,1.774,10.457
		C236.416,129.356,234.104,130.456,231.757,130.456z"/>
	<path d="M312.108,334.501c-3.734,0-6.969-2.787-7.435-6.589c-0.504-4.111,2.421-7.852,6.532-8.356
		c3.216-0.394,9.597-2.182,15.768-3.911c19.178-5.372,31.321-8.359,38.284-4.563c3.637,1.983,4.977,6.539,2.993,10.176
		c-1.925,3.529-6.276,4.895-9.851,3.16c-4.056-0.861-19.779,3.542-27.38,5.672c-7.322,2.051-13.646,3.823-17.99,4.355
		C312.721,334.482,312.413,334.501,312.108,334.501z"/>
</g>
<g>
</g>
<g>
</g>
<g>
</g>
<g>
</g>
<g>
</g>
<g>
</g>
<g>
</g>
<g>
</g>
<g>
</g>
<g>
</g>
<g>
</g>
<g>
</g>
<g>
</g>
<g>
</g>
<g>
</g>
</svg>
