<?xml version="1.0" encoding="iso-8859-1"?>
<!-- Generator: Adobe Illustrator 19.0.0, SVG Export Plug-In . SVG Version: 6.00 Build 0)  -->
<svg version="1.1" id="Layer_1" xmlns="http://www.w3.org/2000/svg" xmlns:xlink="http://www.w3.org/1999/xlink" x="0px" y="0px"
	 viewBox="0 0 512 512" style="enable-background:new 0 0 512 512;" xml:space="preserve">
<path style="fill:#FFA91F;" d="M124.77,220.359c-0.401-5.057-0.601-10.161-0.601-15.313c0-107.096,86.82-182.128,193.916-182.128
	S512,97.95,512,205.046c0,91.193-62.961,167.699-147.789,188.399"/>
<path style="fill:#E2901A;" d="M197.857,220.359c-0.401-5.057-0.601-10.161-0.601-15.313c0-94.601,67.749-164.172,157.372-179.119
	c-11.837-1.975-24.049-3.008-36.543-3.008c-107.096,0-193.916,75.032-193.916,182.128c0,5.151,0.2,10.256,0.601,15.313
	L275.647,400.73c16.782-4.095-9.665-56.998,5.087-65.143L197.857,220.359z"/>
<path style="fill:#FFA91F;" d="M0,293.19c0,108.188,87.704,195.891,195.891,195.891s195.891-87.704,195.891-195.891"/>
<path style="fill:#B25719;" d="M329.621,71.84c0-6.697-5.43-12.127-12.126-12.127s-12.126,5.43-12.126,12.127
	s5.43,6.232,12.126,6.232S329.621,78.538,329.621,71.84z"/>
<path style="fill:#E2901A;" d="M66.418,293.19H0c0,108.188,87.704,195.891,195.891,195.891c11.321,0,22.414-0.973,33.21-2.816
	C136.731,470.489,66.418,390.057,66.418,293.19z"/>
<ellipse style="fill:#FCE275;" cx="195.896" cy="293.196" rx="195.896" ry="78.144"/>
<g>
	<path style="fill:#FFC522;" d="M116.312,240.158l72.64,40.505v-47.923C163.726,233.14,139.009,235.701,116.312,240.158z"/>
	<path style="fill:#FFC522;" d="M188.953,353.639v-47.924l-72.642,40.507C139.006,350.679,163.725,353.24,188.953,353.639z"/>
	<path style="fill:#FFC522;" d="M202.83,232.74v47.927l72.647-40.509C252.779,235.701,228.059,233.14,202.83,232.74z"/>
	<path style="fill:#FFC522;" d="M225.297,285.449h147.542c-5.353-7.547-17.625-17.991-39.601-27.774
		c-10.75-4.785-22.811-8.951-35.818-12.442L225.297,285.449z"/>
	<path style="fill:#FFC522;" d="M166.494,285.449L94.37,245.232c-13.009,3.492-25.072,7.658-35.824,12.444
		c-21.977,9.783-34.248,20.226-39.601,27.774h147.549V285.449z"/>
	<path style="fill:#FFC522;" d="M166.487,300.932H18.946c5.354,7.547,17.625,17.99,39.6,27.772
		c10.751,4.785,22.814,8.951,35.822,12.442L166.487,300.932z"/>
	<path style="fill:#FFC522;" d="M225.304,300.932l72.117,40.213c13.006-3.492,25.066-7.656,35.816-12.441
		c21.976-9.782,34.246-20.224,39.6-27.772H225.304z"/>
	<path style="fill:#FFC522;" d="M202.83,305.71v47.928c25.23-0.398,49.951-2.961,72.649-7.419L202.83,305.71z"/>
</g>
<g>
	<path style="fill:#E2901A;" d="M341.661,65.946c0.601,1.214,0.721,2.806,0.338,4.298c-0.397,1.446-1.121,2.872-2.028,4.033
		c-1.814,2.395-4.177,4.148-6.631,5.51c-4.956,2.721-10.447,3.793-15.846,3.842c-5.399-0.034-10.892-1.108-15.85-3.826
		c-2.455-1.36-4.82-3.116-6.634-5.513c-0.906-1.163-1.63-2.59-2.026-4.039c-0.383-1.494-0.259-3.089,0.347-4.303
		c0.694,1.219,1.568,1.98,2.444,2.565c0.965,0.546,1.85,0.973,2.881,1.272c1.973,0.634,4.034,1.017,6.126,1.294
		c2.095,0.264,4.2,0.457,6.321,0.585c2.129,0.103,4.256,0.15,6.395,0.178c2.14-0.02,4.267-0.065,6.397-0.166
		c2.12-0.13,4.23-0.312,6.324-0.582c2.094-0.276,4.157-0.66,6.13-1.298c1.03-0.301,1.914-0.73,2.879-1.278
		C340.1,67.928,340.971,67.163,341.661,65.946z"/>
	<path style="fill:#E2901A;" d="M431.246,309.375c-3.6,0-6.6-3.098-6.476-6.696c0.125-3.605,3.294-6.509,6.906-6.263
		c3.5,0.238,6.247,3.33,6.043,6.838C437.523,306.634,434.642,309.375,431.246,309.375z"/>
	<path style="fill:#E2901A;" d="M79.958,404.412c-3.526,0-6.491-2.956-6.484-6.483c0.007-3.788,3.399-6.847,7.166-6.436
		c3.456,0.377,6.074,3.501,5.775,6.983C86.132,401.792,83.292,404.412,79.958,404.412z"/>
	<path style="fill:#E2901A;" d="M271.681,151.413c-3.7,0-6.698-3.229-6.472-6.908c0.215-3.481,3.311-6.241,6.791-6.047
		c3.246,0.18,5.927,2.784,6.149,6.047C278.398,148.179,275.359,151.413,271.681,151.413z"/>
	<path style="fill:#E2901A;" d="M301.211,404.412c-3.4,0-6.278-2.727-6.473-6.118c-0.205-3.578,2.675-6.72,6.255-6.836
		c3.545-0.114,6.594,2.744,6.696,6.288C307.792,401.343,304.815,404.412,301.211,404.412z"/>
	<path style="fill:#E2901A;" d="M216.701,452.272c-3.799,0-6.876-3.435-6.441-7.213c0.401-3.487,3.63-6.084,7.126-5.709
		c3.199,0.343,5.696,3.039,5.794,6.255C223.29,449.207,220.297,452.272,216.701,452.272z"/>
	<path style="fill:#E2901A;" d="M301.211,430.805c-3.393,0-6.278-2.749-6.473-6.13c-0.196-3.414,2.431-6.476,5.832-6.809
		c3.617-0.354,6.904,2.453,7.114,6.079C307.895,427.598,304.878,430.805,301.211,430.805z"/>
	<path style="fill:#E2901A;" d="M450.238,158.486c-3.52,0-6.493-2.953-6.483-6.484c0.008-3.158,2.346-5.887,5.458-6.399
		c3.549-0.585,6.98,1.987,7.45,5.551C457.165,154.971,454.094,158.486,450.238,158.486z"/>
	<path style="fill:#E2901A;" d="M424.492,184.42c-3.683,0-6.722-3.225-6.471-6.908c0.246-3.617,3.528-6.417,7.144-6.023
		c3.329,0.364,5.92,3.288,5.803,6.657C430.849,181.592,427.942,184.42,424.492,184.42z"/>
</g>
<g>
</g>
<g>
</g>
<g>
</g>
<g>
</g>
<g>
</g>
<g>
</g>
<g>
</g>
<g>
</g>
<g>
</g>
<g>
</g>
<g>
</g>
<g>
</g>
<g>
</g>
<g>
</g>
<g>
</g>
</svg>
