<?xml version="1.0" encoding="iso-8859-1"?>
<!-- Generator: Adobe Illustrator 19.0.0, SVG Export Plug-In . SVG Version: 6.00 Build 0)  -->
<svg version="1.1" id="Capa_1" xmlns="http://www.w3.org/2000/svg" xmlns:xlink="http://www.w3.org/1999/xlink" x="0px" y="0px"
	 viewBox="0 0 512 512" style="enable-background:new 0 0 512 512;" xml:space="preserve">
<circle style="fill:#F7F0E6;" cx="256" cy="256" r="256"/>
<circle style="fill:#EEE2D4;" cx="256" cy="256" r="220.69"/>
<circle style="fill:#A3505A;" cx="256" cy="256" r="203.034"/>
<path style="fill:#914450;" d="M256,52.966c-61.685,0-116.903,27.544-154.14,70.964c35.509-30.455,81.622-48.895,132.071-48.895
	c112.134,0,203.034,90.902,203.034,203.034c0,50.449-18.44,96.562-48.895,132.071c43.418-37.236,70.964-92.455,70.964-154.14
	C459.034,143.868,368.134,52.966,256,52.966z"/>
<path style="fill:#EEE2D4;" d="M144.278,207.457c0.492,2.07,1.223,5.216,4.154,8.438c11.757-31.464,36.864-56.321,68.491-67.741
	c-2.456-1.907-5.501-3.014-9.623-3.721c-2.115-0.363-4.157-0.863-6.204-1.107c-22.975-2.731-44.725-11.765-61.085-28.125
	L29.982,5.173C22.406-2.412,9.628-1.655,3.091,7.444c-5.134,7.147-3.605,17.165,2.618,23.388L115.048,140.17
	c16.36,16.36,25.394,38.111,28.125,61.085C143.415,203.3,143.782,205.37,144.278,207.457z"/>
<path style="fill:#E0D0BB;" d="M144.278,207.457c0.492,2.07,1.223,5.216,4.154,8.438c5.068-13.561,12.598-25.88,22.093-36.454
	c-6.557-12.58-14.782-24.27-25.02-34.508L5.425,4.853c-0.83,0.783-1.633,1.615-2.334,2.591c-5.134,7.147-3.605,17.165,2.618,23.388
	L115.048,140.17c16.36,16.36,25.394,38.111,28.125,61.085C143.415,203.3,143.782,205.37,144.278,207.457z"/>
<path style="fill:#914450;" d="M143.421,241.78c-0.586,0-1.181-0.056-1.775-0.181c-4.776-0.974-7.862-5.642-6.879-10.418
	c9.725-47.521,46.595-85.086,93.931-95.694c4.759-1.081,9.474,1.922,10.543,6.681c1.069,4.759-1.922,9.479-6.681,10.543
	c-40.561,9.095-72.163,41.284-80.5,82.013C151.206,238.901,147.524,241.78,143.421,241.78z"/>
<path style="fill:#C86E73;" d="M361.931,361.931h-8.828c-4.879,0-8.828-3.948-8.828-8.828c0-4.879,3.948-8.828,8.828-8.828h8.828
	c4.879,0,8.828,3.948,8.828,8.828C370.759,357.983,366.81,361.931,361.931,361.931z"/>
<path style="fill:#914450;" d="M229.517,326.621c-4.879,0-8.828-3.948-8.828-8.828v-8.828c0-4.879,3.948-8.828,8.828-8.828
	s8.828,3.948,8.828,8.828v8.828C238.345,322.673,234.397,326.621,229.517,326.621z"/>
<path style="fill:#C86E73;" d="M203.034,388.414h-8.828c-4.879,0-8.828-3.948-8.828-8.828c0-4.879,3.948-8.828,8.828-8.828h8.828
	c4.879,0,8.828,3.948,8.828,8.828C211.862,384.466,207.914,388.414,203.034,388.414z"/>
<g>
	<path style="fill:#914450;" d="M264.828,114.759c-2.259,0-4.517-0.862-6.241-2.586l-8.828-8.828c-3.448-3.448-3.448-9.035,0-12.483
		c3.448-3.448,9.035-3.448,12.483,0l8.828,8.828c3.448,3.448,3.448,9.035,0,12.483C269.345,113.897,267.086,114.759,264.828,114.759
		z"/>
	<path style="fill:#914450;" d="M388.414,194.207c-4.879,0-8.828-3.948-8.828-8.828v-8.828c0-4.879,3.948-8.828,8.828-8.828
		s8.828,3.948,8.828,8.828v8.828C397.241,190.259,393.293,194.207,388.414,194.207z"/>
</g>
<g>
	<path style="fill:#C86E73;" d="M317.793,238.345c-2.259,0-4.517-0.862-6.241-2.586l-8.828-8.828c-3.448-3.448-3.448-9.035,0-12.483
		s9.035-3.448,12.483,0l8.828,8.828c3.448,3.448,3.448,9.035,0,12.483C322.311,237.483,320.052,238.345,317.793,238.345z"/>
	<path style="fill:#C86E73;" d="M105.931,282.483c-4.879,0-8.828-3.948-8.828-8.828v-8.828c0-4.879,3.948-8.828,8.828-8.828
		c4.879,0,8.828,3.948,8.828,8.828v8.828C114.759,278.535,110.81,282.483,105.931,282.483z"/>
</g>
<path style="fill:#914450;" d="M185.379,273.655c-2.259,0-4.518-0.862-6.241-2.586l-8.828-8.828c-3.448-3.448-3.448-9.035,0-12.483
	c3.448-3.448,9.035-3.448,12.483,0l8.828,8.828c3.448,3.448,3.448,9.035,0,12.483C189.897,272.793,187.638,273.655,185.379,273.655z
	"/>
<g>
	<circle style="fill:#C86E73;" cx="229.517" cy="229.517" r="17.655"/>
	<circle style="fill:#C86E73;" cx="308.966" cy="158.897" r="17.655"/>
	<circle style="fill:#C86E73;" cx="273.655" cy="379.586" r="17.655"/>
</g>
<g>
	<circle style="fill:#914450;" cx="300.138" cy="291.31" r="17.655"/>
	<circle style="fill:#914450;" cx="158.897" cy="317.793" r="17.655"/>
	<circle style="fill:#914450;" cx="370.759" cy="256" r="17.655"/>
</g>
<g>
</g>
<g>
</g>
<g>
</g>
<g>
</g>
<g>
</g>
<g>
</g>
<g>
</g>
<g>
</g>
<g>
</g>
<g>
</g>
<g>
</g>
<g>
</g>
<g>
</g>
<g>
</g>
<g>
</g>
</svg>
