<?xml version="1.0" encoding="iso-8859-1"?>
<!-- Generator: Adobe Illustrator 19.0.0, SVG Export Plug-In . SVG Version: 6.00 Build 0)  -->
<svg version="1.1" id="Capa_1" xmlns="http://www.w3.org/2000/svg" xmlns:xlink="http://www.w3.org/1999/xlink" x="0px" y="0px"
	 viewBox="0 0 512 512" style="enable-background:new 0 0 512 512;" xml:space="preserve">
<circle style="fill:#F7F0E6;" cx="256" cy="256" r="256"/>
<circle style="fill:#EEE2D4;" cx="256" cy="256" r="229.52"/>
<circle style="fill:#FFAF5D;" cx="256" cy="256" r="211.86"/>
<circle style="fill:#FFBE64;" cx="256" cy="256" r="185.38"/>
<path style="fill:#EEE2D4;" d="M144.435,207.458c0.492,2.07,1.223,5.216,4.154,8.439c11.758-31.464,36.864-56.321,68.491-67.741
	c-2.456-1.907-5.501-3.013-9.623-3.72c-2.115-0.363-4.157-0.863-6.203-1.107c-22.975-2.731-44.725-11.765-61.085-28.124
	L30.138,5.173C22.563-2.413,9.784-1.656,3.248,7.444c-5.135,7.147-3.605,17.165,2.618,23.387l109.339,109.338
	c16.359,16.36,25.394,38.11,28.124,61.085C143.572,203.301,143.938,205.37,144.435,207.458z"/>
<path style="fill:#E0D0BB;" d="M144.435,207.458c0.492,2.07,1.223,5.216,4.154,8.439c5.068-13.561,12.599-25.88,22.093-36.453
	c-6.557-12.58-14.781-24.27-25.019-34.509L5.581,4.853c-0.83,0.783-1.633,1.615-2.334,2.591c-5.135,7.147-3.605,17.165,2.618,23.387
	l109.339,109.338c16.359,16.36,25.394,38.11,28.124,61.085C143.572,203.301,143.938,205.37,144.435,207.458z"/>
<g>
	<path style="fill:#C9E66E;" d="M154.113,277.598c-3.118-2.833-8.186-0.351-7.767,3.841c2.366,23.654,13.024,46.468,31.916,63.632
		c18.858,17.134,42.537,25.564,66.267,25.686c4.259,0.022,6.327-5.261,3.175-8.125L154.113,277.598z"/>
	<path style="fill:#C9E66E;" d="M316.204,377.295c0.394,4.194,5.811,5.776,8.326,2.397c14.194-19.069,21.696-43.107,19.307-68.519
		c-2.388-25.412-14.237-47.631-31.736-63.722c-3.101-2.851-8.128-0.288-7.734,3.906L316.204,377.295z"/>
	<path style="fill:#C9E66E;" d="M342.438,175.927c3.996-1.334,4.31-6.968,0.449-8.653c-21.789-9.505-46.901-11.366-71.112-3.283
		c-24.211,8.083-43.168,24.658-54.876,45.347c-2.075,3.666,1.561,7.982,5.557,6.648L342.438,175.927z"/>
</g>
<g>
	<circle style="fill:#FBE6A5;" cx="256" cy="229.52" r="17.655"/>
	<circle style="fill:#FBE6A5;" cx="384" cy="265.93" r="17.655"/>
	<circle style="fill:#FBE6A5;" cx="282.48" cy="114.76" r="17.655"/>
	<circle style="fill:#FBE6A5;" cx="185.38" cy="379.59" r="17.655"/>
</g>
<g>
	<path style="fill:#FF965A;" d="M277.995,330.96l-15.991-15.991c-2.479-2.479-2.479-6.498,0-8.977L277.995,290
		c2.479-2.479,6.498-2.479,8.977,0l15.991,15.991c2.479,2.479,2.479,6.498,0,8.977l-15.991,15.991
		C284.492,333.439,280.473,333.439,277.995,330.96z"/>
	<path style="fill:#FF965A;" d="M349.525,221.818l-21.491-7.041c-3.331-1.091-5.147-4.677-4.056-8.008l7.041-21.491
		c1.091-3.331,4.677-5.147,8.008-4.056l21.491,7.041c3.331,1.091,5.147,4.677,4.056,8.008l-7.041,21.491
		C356.442,221.094,352.856,222.91,349.525,221.818z"/>
	<path style="fill:#FF965A;" d="M124.627,315.817l-21.491-7.041c-3.331-1.091-5.147-4.677-4.056-8.008l7.041-21.491
		c1.091-3.331,4.677-5.147,8.008-4.056l21.491,7.041c3.331,1.091,5.147,4.677,4.056,8.008l-7.041,21.491
		C131.544,315.093,127.958,316.909,124.627,315.817z"/>
</g>
<path style="fill:#FBE6A5;" d="M267.767,411.957c-3.422,0-6.681-2.009-8.112-5.353c-1.922-4.483,0.155-9.672,4.638-11.591
	l10.302-4.414c4.44-1.931,9.672,0.151,11.586,4.634c1.922,4.483-0.155,9.672-4.638,11.591l-10.302,4.414
	C270.112,411.724,268.931,411.957,267.767,411.957z"/>
<g>
	<path style="fill:#FF965A;" d="M214.069,282.487c-3.422,0-6.681-2.009-8.112-5.353l-4.414-10.297
		c-1.922-4.483,0.155-9.672,4.638-11.59c4.44-1.922,9.664,0.147,11.586,4.634l4.414,10.297c1.922,4.483-0.155,9.672-4.638,11.591
		C216.414,282.255,215.233,282.487,214.069,282.487z"/>
	<path style="fill:#FF965A;" d="M402.759,220.328c-3.698,0-7.138-2.341-8.371-6.039c-1.543-4.625,0.957-9.625,5.578-11.168
		l8.828-2.944c4.655-1.526,9.629,0.961,11.164,5.582c1.543,4.625-0.957,9.625-5.578,11.168l-8.828,2.944
		C404.621,220.177,403.681,220.328,402.759,220.328z"/>
</g>
<path style="fill:#FBE6A5;" d="M393.561,348.789c-1.483,0-2.983-0.371-4.371-1.159l-11.776-6.72
	c-4.233-2.418-5.707-7.81-3.284-12.043c2.414-4.237,7.776-5.72,12.043-3.293l11.776,6.72c4.233,2.418,5.707,7.81,3.284,12.043
	C399.604,347.19,396.63,348.789,393.561,348.789z"/>
<path style="fill:#FF965A;" d="M345.888,410.578c-2.431,0-4.853-1-6.595-2.961c-3.241-3.647-2.914-9.224,0.733-12.466l4.966-4.414
	c3.629-3.237,9.224-2.914,12.457,0.733c3.241,3.647,2.914,9.224-0.733,12.466l-4.966,4.414
	C350.069,409.841,347.974,410.578,345.888,410.578z"/>
<path style="fill:#FBE6A5;" d="M175.811,236.875c-1.983,0-3.991-0.668-5.638-2.043c-3.75-3.116-4.259-8.681-1.138-12.431
	l3.672-4.414c3.103-3.746,8.672-4.276,12.431-1.138c3.75,3.116,4.259,8.681,1.138,12.431l-3.672,4.414
	C180.862,235.793,178.345,236.875,175.811,236.875z"/>
<g>
	<path style="fill:#FF965A;" d="M207.448,112.552c-2.259,0-4.517-0.862-6.241-2.582l-3.681-3.677
		c-3.448-3.444-3.448-9.034-0.009-12.483c3.448-3.457,9.043-3.448,12.491-0.009l3.681,3.677c3.448,3.444,3.448,9.034,0.009,12.483
		C211.974,111.69,209.707,112.552,207.448,112.552z"/>
	<path style="fill:#FF965A;" d="M103,234.668c-3.129,0-6.155-1.659-7.759-4.599c-2.336-4.28-0.759-9.642,3.517-11.978l8.086-4.414
		c4.284-2.328,9.647-0.763,11.983,3.522c2.336,4.28,0.759,9.642-3.517,11.978l-8.086,4.414
		C105.88,234.323,104.431,234.668,103,234.668z"/>
</g>
<path style="fill:#FBE6A5;" d="M355.311,140.509c-1.034,0-2.078-0.181-3.095-0.565l-5.888-2.207
	c-4.569-1.711-6.879-6.802-5.172-11.366c1.716-4.573,6.828-6.879,11.362-5.168l5.888,2.207c4.569,1.711,6.879,6.802,5.172,11.366
	C362.25,138.319,358.88,140.509,355.311,140.509z"/>
<path style="fill:#FF965A;" d="M227.302,418.573c-1.595,0-3.216-0.431-4.672-1.345c-4.138-2.586-5.388-8.03-2.802-12.164
	l3.681-5.884c2.578-4.134,8.026-5.397,12.164-2.802c4.138,2.586,5.388,8.03,2.802,12.164l-3.681,5.884
	C233.121,417.104,230.242,418.573,227.302,418.573z"/>
<g>
	<path style="fill:#ADDF6E;" d="M243.505,358.816c-21.067-1.736-41.68-10.048-58.471-25.303
		c-16.792-15.256-27.04-34.982-30.781-55.788l-0.139-0.126c-3.118-2.833-8.186-0.351-7.767,3.841
		c2.366,23.654,13.024,46.468,31.915,63.632c18.859,17.135,42.537,25.564,66.267,25.686c4.259,0.022,6.328-5.261,3.176-8.124
		L243.505,358.816z"/>
	<path style="fill:#ADDF6E;" d="M318.207,253.581c-1.95-2.128-3.982-4.178-6.105-6.13c-3.101-2.851-8.128-0.287-7.734,3.907
		l11.837,125.938c0.394,4.194,5.81,5.776,8.326,2.397c1.722-2.314,3.336-4.707,4.856-7.161L318.207,253.581z"/>
	<path style="fill:#ADDF6E;" d="M242.042,209.337c11.709-20.689,30.665-37.263,54.876-45.346c6.108-2.039,12.273-3.438,18.428-4.248
		c-14.246-1.802-29.065-0.595-43.572,4.248c-24.211,8.083-43.168,24.657-54.876,45.346c-2.075,3.666,1.561,7.982,5.557,6.648
		l19.54-6.524C242.017,209.42,242.019,209.378,242.042,209.337z"/>
</g>
<path style="fill:#FFAF5D;" d="M143.673,241.698c-0.586,0-1.181-0.056-1.776-0.181c-4.776-0.974-7.862-5.638-6.879-10.414
	c9.716-47.526,46.586-85.086,93.931-95.694c4.759-1.06,9.474,1.927,10.543,6.681c1.069,4.759-1.922,9.478-6.681,10.543
	c-40.569,9.095-72.164,41.28-80.5,82.004C151.457,238.819,147.776,241.698,143.673,241.698z"/>
<g>
</g>
<g>
</g>
<g>
</g>
<g>
</g>
<g>
</g>
<g>
</g>
<g>
</g>
<g>
</g>
<g>
</g>
<g>
</g>
<g>
</g>
<g>
</g>
<g>
</g>
<g>
</g>
<g>
</g>
</svg>
