<?xml version="1.0" encoding="iso-8859-1"?>
<!-- Generator: Adobe Illustrator 19.0.0, SVG Export Plug-In . SVG Version: 6.00 Build 0)  -->
<svg version="1.1" id="Capa_1" xmlns="http://www.w3.org/2000/svg" xmlns:xlink="http://www.w3.org/1999/xlink" x="0px" y="0px"
	 viewBox="0 0 512.001 512.001" style="enable-background:new 0 0 512.001 512.001;" xml:space="preserve">
<path style="fill:#4E901E;" d="M228.798,258.932v57.538c0,23.429-16.171,44.169-41.037,56.928
	c-4.859,2.492-10.039,4.684-15.509,6.524c-8.582,2.895-17.835,4.942-27.565,5.986c-0.114,0.01-0.238,0.021-0.352,0.031
	c-4.766,0.507-9.647,0.765-14.609,0.765h-0.9c-4.921-0.031-9.76-0.321-14.475-0.837c-5.325-0.589-10.505-1.479-15.509-2.647
	c-9.305-2.161-17.99-5.263-25.848-9.171c-5.635-2.781-10.825-5.976-15.509-9.522c-16.636-12.562-26.83-29.467-26.83-48.057v-57.538
	H228.798L228.798,258.932z"/>
<path style="fill:#5EAC24;" d="M228.798,258.932v57.538c0,23.429-16.171,44.169-41.037,56.928
	c-4.859,2.492-10.039,4.684-15.509,6.524c-8.582,2.895-17.835,4.942-27.565,5.986c-0.114-0.021-0.238-0.031-0.352-0.041
	c-5.325-0.589-10.505-1.479-15.509-2.647c-9.305-2.161-17.99-5.263-25.848-9.171c-5.635-2.781-10.825-5.976-15.509-9.522
	c-16.636-12.562-26.83-29.467-26.83-48.057v-57.538H228.798L228.798,258.932z"/>
<path style="fill:#4E901E;" d="M511.96,131.924c0,13.658-2.781,26.706-7.806,38.586c-15.168,35.805-50.704,61.095-91.875,61.095
	H99.681C44.862,231.605,0,186.753,0,131.924c0-13.172,2.595-25.776,7.3-37.314c2.192-5.418,4.87-10.608,7.951-15.509
	c4.012-6.379,8.726-12.273,14.03-17.577c0.093-0.093,0.186-0.186,0.279-0.279c18.052-17.908,42.846-29.002,70.121-29.002h312.598
	C467.108,32.243,511.96,77.095,511.96,131.924z"/>
<path style="fill:#5EAC24;" d="M511.96,131.924c0,13.658-2.781,26.706-7.806,38.586c-18.042,17.928-42.867,29.043-70.162,29.043
	H121.393c-54.819,0-99.681-44.852-99.681-99.681c0-13.172,2.595-25.776,7.3-37.314c0.176-0.434,0.362-0.879,0.548-1.313
	c18.052-17.908,42.846-29.002,70.121-29.002h312.598C467.108,32.243,511.96,77.095,511.96,131.924z"/>
<circle style="fill:#91DC5A;" cx="412.93" cy="131.92" r="99.071"/>
<g>
	<path style="fill:#47821C;" d="M138.65,86.855c0,4.28-3.474,7.754-7.754,7.754H7.3c2.192-5.418,4.87-10.608,7.951-15.509h115.645
		C135.176,79.101,138.65,82.575,138.65,86.855z"/>
	<path style="fill:#47821C;" d="M161.913,94.613h79.612c4.283,0,7.754-3.472,7.754-7.754s-3.472-7.754-7.754-7.754h-79.612
		c-4.283,0-7.754,3.472-7.754,7.754S157.631,94.613,161.913,94.613z"/>
	<path style="fill:#47821C;" d="M123.313,148.033H84.024c-4.283,0-7.754,3.472-7.754,7.754c0,4.283,3.472,7.754,7.754,7.754h39.289
		c4.283,0,7.754-3.472,7.754-7.754C131.068,151.505,127.596,148.033,123.313,148.033z"/>
	<path style="fill:#47821C;" d="M285.984,148.033H154.331c-4.283,0-7.754,3.472-7.754,7.754c0,4.283,3.472,7.754,7.754,7.754
		h131.653c4.284,0,7.754-3.472,7.754-7.754C293.739,151.505,290.268,148.033,285.984,148.033z"/>
</g>
<ellipse style="fill:#91DC5A;" cx="129.727" cy="258.576" rx="99.071" ry="70.235"/>
<ellipse style="fill:#B6E892;" cx="129.861" cy="257.552" rx="79.612" ry="52.089"/>
<g>
	<ellipse style="fill:#6DC82A;" cx="120.473" cy="235.623" rx="10.856" ry="8.444"/>
	<ellipse style="fill:#6DC82A;" cx="110.486" cy="275.863" rx="10.856" ry="8.571"/>
	<ellipse style="fill:#6DC82A;" cx="160.455" cy="260.871" rx="10.856" ry="9.088"/>
</g>
<path style="fill:#4E901E;" d="M404.566,351.985v57.538c0,11.632-3.991,22.602-11.053,32.259
	c-4.156,5.697-9.388,10.939-15.509,15.592c-6.348,4.839-13.658,9.047-21.712,12.459c-4.911,2.089-10.091,3.877-15.509,5.335
	c-6.462,1.747-13.255,3.029-20.296,3.784c-0.217,0.021-0.424,0.041-0.641,0.062c-4.684,0.496-9.471,0.744-14.351,0.744
	c-0.383,0-0.775,0-1.158-0.01c-28.03-0.217-53.268-8.706-71.083-22.167c-6.1-4.601-11.332-9.791-15.509-15.437
	c-7.237-9.75-11.322-20.844-11.322-32.62v-57.538H404.566z"/>
<path style="fill:#5EAC24;" d="M404.566,351.985v57.538c0,11.632-3.991,22.602-11.053,32.259
	c-4.156,5.697-9.388,10.939-15.509,15.592c-6.348,4.839-13.658,9.047-21.712,12.459c-4.911,2.089-10.091,3.877-15.509,5.335
	c-6.462,1.747-13.255,3.029-20.296,3.784c-22.447-2.409-42.412-10.164-57.249-21.371c-6.1-4.601-11.332-9.791-15.509-15.437
	c-7.238-9.75-11.322-20.844-11.322-32.62v-57.538H404.566z"/>
<ellipse style="fill:#91DC5A;" cx="305.495" cy="351.63" rx="99.071" ry="70.235"/>
<ellipse style="fill:#B6E892;" cx="305.629" cy="350.606" rx="79.612" ry="52.089"/>
<g>
	<ellipse style="fill:#6DC82A;" cx="296.241" cy="328.676" rx="10.856" ry="8.444"/>
	<ellipse style="fill:#6DC82A;" cx="286.253" cy="368.917" rx="10.856" ry="8.571"/>
	<ellipse style="fill:#6DC82A;" cx="336.223" cy="353.925" rx="10.856" ry="9.088"/>
</g>
<circle style="fill:#B6E892;" cx="412.237" cy="132.271" r="83.211"/>
<g>
	<circle style="fill:#6DC82A;" cx="415.225" cy="84.276" r="10.856"/>
	<circle style="fill:#6DC82A;" cx="378.521" cy="120.464" r="10.856"/>
	<circle style="fill:#6DC82A;" cx="402.818" cy="179.398" r="10.856"/>
	<circle style="fill:#6DC82A;" cx="467.956" cy="136.748" r="10.856"/>
</g>
<g>
	<path style="fill:#47821C;" d="M144.336,366.801v19.138c-4.766,0.507-9.647,0.765-14.609,0.765h-0.9v-19.903
		c0-4.28,3.474-7.754,7.754-7.754C140.862,359.047,144.336,362.521,144.336,366.801z"/>
	<path style="fill:#47821C;" d="M393.513,421.6v20.182c-4.156,5.697-9.388,10.939-15.509,15.592V421.6
		c0-4.28,3.474-7.754,7.754-7.754C390.039,413.845,393.513,417.319,393.513,421.6z"/>
	<path style="fill:#47821C;" d="M319.846,435.558v43.456c-4.684,0.496-9.471,0.744-14.351,0.744c-0.383,0-0.775,0-1.158-0.01v-44.19
		c0-4.28,3.474-7.754,7.754-7.754C316.372,427.803,319.846,431.277,319.846,435.558z"/>
	<path style="fill:#47821C;" d="M356.292,450.55v19.283c-4.911,2.089-10.091,3.877-15.509,5.335V450.55
		c0-4.28,3.474-7.754,7.754-7.754C352.818,442.795,356.292,446.269,356.292,450.55z"/>
	<path style="fill:#47821C;" d="M187.761,341.987v31.411c-4.859,2.492-10.039,4.684-15.509,6.524v-37.935
		c0-4.28,3.474-7.754,7.754-7.754S187.761,337.707,187.761,341.987z"/>
</g>
<g>
</g>
<g>
</g>
<g>
</g>
<g>
</g>
<g>
</g>
<g>
</g>
<g>
</g>
<g>
</g>
<g>
</g>
<g>
</g>
<g>
</g>
<g>
</g>
<g>
</g>
<g>
</g>
<g>
</g>
</svg>
