<?xml version="1.0" encoding="iso-8859-1"?>
<!-- Generator: Adobe Illustrator 19.0.0, SVG Export Plug-In . SVG Version: 6.00 Build 0)  -->
<svg version="1.1" id="Layer_1" xmlns="http://www.w3.org/2000/svg" xmlns:xlink="http://www.w3.org/1999/xlink" x="0px" y="0px"
	 viewBox="0 0 512 512" style="enable-background:new 0 0 512 512;" xml:space="preserve">
<path style="fill:#93CC52;" d="M272.554,76.587c-10.688,6.521-14.049,46.386-20.453,56.419
	c-9.962-7.328-32.576-34.092-45.875-34.092c-3.559,0-2.074-8.419-5.469-7.822c1.112-10.852,4.472-21.645,10.243-31.725
	l12.327-21.482l21.482,12.315C256.445,56.873,265.787,66.016,272.554,76.587z"/>
<path style="fill:#E6E6E6;" d="M511.995,218.118c0,141.384-114.614,255.997-255.997,255.997S0,359.501,0,218.118"/>
<path style="fill:#CCCCCC;" d="M87.964,218.118H0c0,141.384,114.614,255.997,255.997,255.997c14.998,0,29.691-1.303,43.982-3.778
	C179.555,449.484,87.964,344.503,87.964,218.118z"/>
<g>
	<path style="fill:#B3B3B3;" d="M447.626,150.397l-7.562,10.911c-1.662-5.97-4.027-11.66-7.001-16.951
		C438.12,146.288,442.978,148.314,447.626,150.397z"/>
	<path style="fill:#B3B3B3;" d="M512,218.12c0,0.375,0,0.738-0.012,1.112c-0.316,11.519-5.397,22.582-14.516,32.884l-255.907-73.064
		l235.151-12.698C499.134,181.525,512,199.225,512,218.12z"/>
	<path style="fill:#B3B3B3;" d="M473.355,215.342c-9.892,6.509-199.69,57.499-199.69,70.236c0,0.983-236.578-15.399-236.496-14.439
		C13.581,255.686,0.001,237.541,0.001,218.12c0-19.843,14.188-38.362,38.737-54.038c-2.353,7.422,254.336-33.039,254.336-24.833
		C293.074,158.366,461.895,201.821,473.355,215.342z"/>
</g>
<path style="fill:#FFD41D;" d="M440.063,161.308l7.148,38.035l-35.51,43.314l-67.831,6.86c-1.007-1.651-2.224-3.196-3.652-4.624
	c-9.529-9.517-24.771-9.81-34.651-0.89l-0.632-0.901c1.393-0.937,2.704-2.002,3.933-3.231c9.833-9.822,9.833-25.766,0-35.588
	c-9.834-9.834-25.766-9.834-35.6,0c4.249-4.249,6.661-9.646,7.235-15.183c25.696-14.867,40.423-42.202,40.154-70.497
	c12.62-8.862,27.99-14.06,44.567-14.06c29.149,0,54.553,16.061,67.84,39.814C436.036,149.648,438.401,155.337,440.063,161.308z"/>
<path style="fill:#F94848;" d="M476.716,166.353l20.756,85.762c-3.114,3.524-6.708,6.954-10.735,10.29l-49.672-20.529
	l-12.525-58.198l15.523-22.371l7.562-10.911h0.012l18.695-26.949L476.716,166.353z"/>
<path style="fill:#F97D7D;" d="M424.54,183.679l62.197,78.727c-23.881,19.772-63.274,35.998-111.88,46.182l27.194-153.368
	L424.54,183.679z"/>
<path style="fill:#EFC71D;" d="M327.131,182.238c0-36.066,24.577-66.383,57.894-75.14c-6.323-1.662-12.957-2.556-19.802-2.556
	c-42.91,0-77.695,34.785-77.695,77.695s34.785,77.695,77.695,77.695c6.845,0,13.479-0.893,19.802-2.556
	C351.708,248.621,327.131,218.304,327.131,182.238z"/>
<path style="fill:#F94848;" d="M402.052,155.22l-27.194,153.368c-15.851,3.325-32.696,5.994-50.291,7.937
	c3.032-8.803-30.832-19.592-33.442-20.798l-27.238-15.835c9.377,4.554,85.954-20.67,79.984-30.375L402.052,155.22z"/>
<g>
	<path style="fill:#4CA1E0;" d="M343.87,249.517c5.97,9.705,4.753,22.57-3.652,30.976c-7.785,7.785-19.398,9.412-28.775,4.858
		c-2.47-1.194-4.776-2.81-6.813-4.858c-9.833-9.834-9.833-25.766,0-35.6c0.304-0.304,0.62-0.609,0.937-0.89
		c9.88-8.92,25.122-8.628,34.651,0.89C341.646,246.321,342.863,247.866,343.87,249.517z"/>
	<path style="fill:#4CA1E0;" d="M318.561,290.548c7.024,7.024,9.037,17.174,6.005,25.977c-14.902,1.651-30.343,2.774-46.194,3.325
		c-4.87-9.471-3.336-21.365,4.589-29.302c0.808-0.808,1.651-1.534,2.529-2.213c7.516-5.748,17.536-6.684,25.872-2.821
		C313.972,286.72,316.407,288.406,318.561,290.548z"/>
</g>
<path style="fill:#A3E261;" d="M320.656,118.602c0.269,28.295-14.458,55.63-40.154,70.497c0.761-7.281-20.866,7.243-26.45,1.659
	c-1.206-1.206-26.348-17.037-27.706-17.95c1.264-4.847,3.512-27.156,3.512-32.389c0-19.901,31.808-27.636,16.905-38.581
	c6.403-10.033,15.101-18.731,25.79-25.251c2.236-1.37,4.554-2.646,6.965-3.805l22.301-10.782l10.782,22.289
	C317.952,95.365,320.562,107.06,320.656,118.602z"/>
<path style="fill:#368CC1;" d="M311.443,285.351l-0.082,0.164c-8.335-3.863-18.356-2.927-25.872,2.821l-0.199-0.258
	c0.656-0.539,1.299-1.124,1.908-1.733c9.834-9.834,9.834-25.766,0-35.6c-2.154-2.142-4.589-3.828-7.2-5.034l0.41-0.831
	c7.843,3.664,17.174,3.067,24.525-1.779l0.632,0.901c-0.316,0.281-0.632,0.585-0.937,0.89c-9.833,9.834-9.833,25.766,0,35.6
	C306.667,282.541,308.973,284.157,311.443,285.351z"/>
<g>
	<path style="fill:#4CA1E0;" d="M308.867,204.283c9.833,9.822,9.833,25.766,0,35.588c-1.229,1.229-2.54,2.294-3.933,3.231
		c-7.352,4.847-16.682,5.444-24.525,1.779c-2.587-1.206-5.01-2.88-7.141-5.01c-9.822-9.822-9.822-25.766,0-35.588
		C283.101,194.449,299.034,194.449,308.867,204.283z"/>
	<path style="fill:#4CA1E0;" d="M287.199,250.746c9.833,9.834,9.833,25.766,0,35.6c-0.609,0.609-1.253,1.194-1.908,1.733
		c-9.88,8.066-24.455,7.492-33.68-1.733c-9.834-9.834-9.834-25.766,0-35.6c7.68-7.668,19.082-9.354,28.388-5.034
		C282.61,246.918,285.045,248.604,287.199,250.746z"/>
</g>
<g>
	<path style="fill:#368CC1;" d="M285.29,288.078l0.199,0.258c-0.878,0.679-1.721,1.405-2.529,2.213
		c-7.925,7.937-9.459,19.831-4.589,29.302c-7.375,0.258-14.832,0.386-22.371,0.386c-4.741,0-9.447-0.047-14.118-0.152v-63.297
		c3.559-1.194,6.895-3.208,9.728-6.041c-9.834,9.834-9.834,25.766,0,35.6C260.835,295.571,275.41,296.144,285.29,288.078z"/>
	<path style="fill:#368CC1;" d="M299.912,290.548c-7.715,7.715-9.377,19.175-4.987,28.505c-5.467,0.34-10.981,0.597-16.553,0.796
		h-0.012c-4.87-9.471-3.336-21.365,4.601-29.302c7.106-7.106,17.384-9.061,26.258-5.9
		C305.824,285.866,302.628,287.833,299.912,290.548z"/>
	<path style="fill:#368CC1;" d="M328.705,285.499c-2.575-1.194-4.999-2.868-7.129-4.999c-9.834-9.834-9.834-25.766,0-35.6
		c2.722-2.722,5.912-4.686,9.309-5.9c-8.869-3.16-19.152-1.203-26.257,5.9c-9.834,9.834-9.834,25.766,0,35.6
		c2.131,2.131,4.554,3.805,7.129,4.999c6.029,2.821,12.932,3.105,19.141,0.889C330.159,286.123,329.424,285.835,328.705,285.499z"/>
	<path style="fill:#368CC1;" d="M275.686,291.344c-2.575-1.194-4.999-2.868-7.129-4.999c-9.834-9.833-9.834-25.766,0-35.6
		c2.722-2.722,5.912-4.686,9.309-5.9c-8.869-3.16-19.152-1.203-26.257,5.9c-9.834,9.834-9.834,25.766,0,35.6
		c2.131,2.131,4.554,3.805,7.129,4.999c6.029,2.821,12.932,3.105,19.141,0.889C277.14,291.968,276.405,291.682,275.686,291.344z"/>
	<path style="fill:#368CC1;" d="M297.344,244.881c-2.575-1.194-4.999-2.868-7.129-4.999c-9.834-9.834-9.834-25.766,0-35.6
		c2.722-2.722,5.912-4.686,9.309-5.9c-8.869-3.16-19.152-1.203-26.257,5.9c-9.834,9.834-9.834,25.766,0,35.6
		c2.131,2.131,4.554,3.805,7.129,4.999c6.029,2.821,12.932,3.105,19.141,0.889C298.797,245.505,298.062,245.218,297.344,244.881z"/>
</g>
<path style="fill:#FFD41D;" d="M271.336,150.339c0,5.233-0.667,10.325-1.932,15.172c-9.775-6.509-13.445,10.426-22.073,19.054
	c-9.834,9.834-9.356,4.555,0.478,14.389c2.131,2.131-5.576,9.135-3,10.329l-0.398,0.831c-9.318-4.32-20.721,7.696-28.4,15.375
	c9.834-9.834-17.682-14.75-27.515-24.584c-7.223-7.223-17.958-9.26-26.925-5.853c-3.699-20.639,12.168-59.673-4.374-71.204
	c8.312-16.939,24.373-29.395,43.56-32.755c3.395-0.597,6.883-0.901,10.442-0.901c13.299,0,25.602,4.32,35.565,11.648
	C261.667,112.784,271.336,130.438,271.336,150.339z"/>
<path style="fill:#4CA1E0;" d="M273.268,168.683c5.584,5.584,7.996,13.135,7.235,20.416c-0.574,5.537-2.985,10.934-7.235,15.183
	c-7.691,7.691-19.129,9.365-28.459,4.999c-2.575-1.194-4.999-2.868-7.129-4.999c-9.834-9.834-9.834-25.766,0-35.6
	c8.628-8.628,21.95-9.681,31.725-3.172C270.763,166.424,272.062,167.477,273.268,168.683z"/>
<g>
	<path style="fill:#368CC1;" d="M280.409,244.881l-0.41,0.831c-9.307-4.32-20.709-2.634-28.388,5.034
		c9.822-9.822,9.822-25.754,0-35.588c-2.154-2.154-4.589-3.828-7.2-5.046l0.398-0.831c9.33,4.367,20.767,2.693,28.459-4.999
		c-9.822,9.822-9.822,25.766,0,35.588C275.398,242.001,277.822,243.675,280.409,244.881z"/>
	<path style="fill:#368CC1;" d="M248.13,196.911c9.833,9.834,9.833,25.766,0,35.6c-2.224,2.224-4.741,3.945-7.445,5.163h-0.012
		c-4.975-0.819-10.302-1.253-15.839-1.253c-2.318,0-4.601,0.082-6.837,0.234h-0.012c-0.574-0.316-1.112-0.656-1.662-1.03
		c-1.335-0.89-2.599-1.932-3.781-3.114c-5.795-5.795-8.171-13.697-7.141-21.236c0.714-5.245,3.102-10.325,7.141-14.364
		c2.599-2.599,5.631-4.519,8.862-5.725C230.371,187.78,240.907,189.688,248.13,196.911z"/>
	<path style="fill:#368CC1;" d="M261.756,209.281c-2.575-1.194-4.999-2.868-7.129-4.999c-9.834-9.834-9.834-25.766,0-35.6
		c2.722-2.722,5.912-4.686,9.309-5.9c-8.869-3.16-19.152-1.203-26.257,5.9c-9.834,9.834-9.834,25.766,0,35.6
		c2.131,2.131,4.554,3.805,7.129,4.999c6.029,2.821,12.932,3.105,19.141,0.889C263.21,209.905,262.474,209.619,261.756,209.281z"/>
	<path style="fill:#368CC1;" d="M251.611,215.158c9.822,9.834,9.822,25.766,0,35.588c-2.833,2.833-6.169,4.847-9.728,6.041v-14.305
		c0-9.716-12.444-18.052-30.156-21.599c1.112-2.049,2.54-3.98,4.285-5.725c7.68-7.68,19.082-9.365,28.4-5.046
		C247.022,211.33,249.457,213.004,251.611,215.158z"/>
</g>
<path style="fill:#FCE275;" d="M241.882,242.481v77.603c-22.91-0.492-45.023-2.189-65.943-4.952
	c-11.156-1.452-21.973-3.219-32.392-5.256v-67.395c0,10.126,13.498,18.754,32.392,22.02c5.233,0.901,10.887,1.393,16.776,1.393
	C219.874,265.894,241.882,255.417,241.882,242.481z"/>
<path style="fill:#4CA1E0;" d="M216.011,179.558c9.834,9.834,9.834,25.766,0,35.6c-2.224,2.224-4.741,3.945-7.445,5.163h-0.012
	c-4.975-0.819-10.302-1.253-15.839-1.253c-2.318,0-4.601,0.082-6.837,0.234h-0.012c-0.574-0.316-1.112-0.656-1.662-1.03
	c-1.335-0.89-2.599-1.932-3.781-3.114c-5.795-5.795-8.171-13.697-7.141-21.236c0.714-5.245,3.102-10.325,7.141-14.364
	c2.599-2.599,5.631-4.519,8.862-5.725C198.252,170.427,208.788,172.335,216.011,179.558z"/>
<path style="fill:#FFA91F;" d="M173.282,193.922c-1.03,7.539,1.346,15.441,7.141,21.236c1.182,1.182,2.447,2.224,3.781,3.114
	c-0.164,0.398-0.339,0.796-0.515,1.194c-22.84,2.014-40.142,11.554-40.142,23.015v16.483c-9.424,4.074-19.819,6.333-30.741,6.333
	c-1.007,0-2.014-0.023-3.009-0.07c-1.522-18.731-17.197-33.446-36.314-33.446c-7.387,0-14.259,2.201-20.007,5.982
	c-11.461-13.521-18.368-31.034-18.368-50.151c0-8.206,1.276-16.108,3.629-23.53c9.962-31.409,39.358-54.166,74.068-54.166
	c16.495,0,31.807,5.151,44.391,13.931c16.541,11.531,28.388,29.348,32.088,49.987c-3.231,1.206-6.263,3.126-8.862,5.725
	C176.384,183.597,173.996,188.678,173.282,193.922z"/>
<g>
	<path style="fill:#368CC1;" d="M204.499,220.157c-2.575-1.194-4.999-2.868-7.129-4.999c-9.834-9.834-9.834-25.766,0-35.6
		c2.722-2.722,5.912-4.686,9.309-5.9c-8.869-3.16-19.152-1.203-26.257,5.9c-9.834,9.834-9.834,25.766,0,35.6
		c2.131,2.131,4.554,3.805,7.129,4.999c6.029,2.821,12.932,3.105,19.141,0.889C205.953,220.781,205.217,220.494,204.499,220.157z"/>
	<path style="fill:#368CC1;" d="M143.547,258.964v50.912c-17.349-3.383-33.586-7.527-48.454-12.327
		c8.991-6.638,14.821-17.302,14.821-29.337c0-1.007-0.035-2.002-0.117-2.985c0.995,0.047,2.002,0.07,3.009,0.07
		C123.728,265.297,134.123,263.038,143.547,258.964z"/>
</g>
<path style="fill:#E2901A;" d="M74.714,187.611c0-36.066,24.577-66.383,57.894-75.14c-6.323-1.662-12.957-2.556-19.802-2.556
	c-42.91,0-77.695,34.785-77.695,77.695s34.785,77.695,77.695,77.695c6.845,0,13.479-0.893,19.802-2.556
	C99.29,253.995,74.714,223.677,74.714,187.611z"/>
<path style="fill:#F94848;" d="M109.797,265.227c0.082,0.983,0.117,1.978,0.117,2.985c0,12.034-5.83,22.699-14.821,29.337
	c-22.898-7.387-42.542-16.331-57.924-26.41c-0.082-0.96-0.117-1.943-0.117-2.927c0-12.737,6.532-23.94,16.424-30.449
	c5.748-3.781,12.62-5.982,20.007-5.982C92.6,231.781,108.275,246.497,109.797,265.227z"/>
<path style="fill:#E23D3D;" d="M56.275,265.227c-0.082,0.983-0.117,1.978-0.117,2.985c0,5.502,1.229,10.723,3.407,15.394
	c-8.218-3.91-15.71-8.078-22.395-12.467c-0.082-0.96-0.117-1.943-0.117-2.927c0-12.737,6.532-23.94,16.424-30.449
	c5.748-3.781,12.62-5.982,20.007-5.982c3.301,0,6.509,0.445,9.553,1.276C68.473,236.991,57.539,249.739,56.275,265.227z"/>
<path style="fill:#DDC55E;" d="M175.939,264.501v50.631c-11.156-1.452-21.973-3.219-32.392-5.256v-67.395
	C143.547,252.607,157.045,261.235,175.939,264.501z"/>
<path style="fill:#EFC71D;" d="M189.285,173.834c-3.699-20.639-15.546-38.456-32.088-49.987
	c8.312-16.939,24.373-29.395,43.56-32.755c3.395-0.597,6.883-0.901,10.442-0.901C211.2,90.19,185.855,128.6,189.285,173.834z"/>
<path style="fill:#FCE275;" d="M211.726,220.883c17.712,3.547,30.156,11.882,30.156,21.599c0,12.936-22.008,23.413-49.168,23.413
	c-27.148,0-49.168-10.477-49.168-23.413c0-11.461,17.302-21.002,40.142-23.015c0.714-0.07,1.44-0.129,2.177-0.164h0.012
	c2.236-0.152,4.519-0.234,6.837-0.234c5.537,0,10.864,0.433,15.839,1.253h0.012C209.643,220.485,210.696,220.672,211.726,220.883z"
	/>
<path style="fill:#DDC55E;" d="M192.715,245.993c-9.98,0-17.616-1.664-22.775-3.506c3.829-1.363,9.018-2.626,15.496-3.197
	l0.201-0.019c0.263-0.026,0.529-0.049,0.797-0.069h0.108l0.686-0.046c1.834-0.124,3.681-0.188,5.487-0.188
	c4.385,0,8.627,0.332,12.604,0.988l1.579,0.26c0.284,0.052,0.563,0.105,0.836,0.162c3.087,0.618,5.659,1.356,7.764,2.107
	C210.339,244.33,202.701,245.993,192.715,245.993z"/>
<g>
</g>
<g>
</g>
<g>
</g>
<g>
</g>
<g>
</g>
<g>
</g>
<g>
</g>
<g>
</g>
<g>
</g>
<g>
</g>
<g>
</g>
<g>
</g>
<g>
</g>
<g>
</g>
<g>
</g>
</svg>
