<svg height="464pt" viewBox="0 0 464 464" width="464pt" xmlns="http://www.w3.org/2000/svg"><path d="m464 384h-352l32-72v-208l-32-56h352l-32 56v208zm0 0" fill="#ffc24f"/><path d="m464 48h-23.007812c-62.121094 187.054688-158.25 284.886719-241.289063 336h264.296875l-32-72v-208zm0 0" fill="#ffba38"/><path d="m112 0 16 8 16-8 16 8 16-8 16 8 16-8 16 8 16-8 16 8 16-8 16 8 16-8 16 8 16-8 16 8 16-8 16 8 16-8 16 8 16-8 16 8 16-8v48h-352zm0 0" fill="#ffb52b"/><path d="m328 288h-112l-32 16v-96c0-35.347656 28.652344-64 64-64h112l32-16v96c0 35.347656-28.652344 64-64 64zm0 0" fill="#e3584b"/><path d="m464 432-16-8-16 8-16-8-16 8-16-8-16 8-16-8-16 8-16-8-16 8-16-8-16 8-16-8-16 8-16-8-16 8-16-8-16 8-16-8-16 8-16-8-16 8v-48h352zm0 0" fill="#ffb52b"/><path d="m352 464-32-16h-240l-32 16v-128l32 16h240l32-16zm0 0" fill="#e3584b"/><path d="m250.664062 352-96 96h165.335938l32 16v-128l-32 16zm0 0" fill="#d64740"/><g fill="#8f4b08"><path d="m48 464h-48l8-16-8-16 8-16-8-16 8-16-8-16 8-16-8-16h48zm0 0"/><path d="m352 336h48l-8 16 8 16-8 16 8 16-8 16 8 16-8 16 8 16h-48zm0 0"/><path d="m104 384h192v32h-192zm0 0"/></g></svg>