<svg height="512pt" viewBox="0 -19 512 512" width="512pt" xmlns="http://www.w3.org/2000/svg"><path d="m339.542969 169.765625c0 87.046875-65.523438 158.800781-149.941407 168.617187-6.511718.761719-13.125 1.148438-19.835937 1.148438-93.757813 0-169.765625-76.007812-169.765625-169.765625 0-93.765625 76.007812-169.765625 169.765625-169.765625 6.710937 0 13.324219.386719 19.835937 1.148438 84.417969 9.816406 149.941407 81.558593 149.941407 168.617187zm0 0" fill="#a55621"/><path d="m339.542969 169.765625c0 87.046875-65.523438 158.800781-149.941407 168.617187-84.429687-9.804687-149.953124-81.558593-149.953124-168.617187s65.523437-158.808594 149.953124-168.617187c84.417969 9.816406 149.941407 81.558593 149.941407 168.617187zm0 0" fill="#bf6a30"/><path d="m512 304.558594c0 87.046875-65.523438 158.800781-149.941406 168.617187-6.511719.761719-13.125 1.148438-19.835938 1.148438-93.753906 0-169.765625-76.007813-169.765625-169.765625 0-93.769532 76.011719-169.765625 169.765625-169.765625 6.710938 0 13.324219.386719 19.835938 1.148437 84.417968 9.816406 149.941406 81.558594 149.941406 168.617188zm0 0" fill="#a55621"/><path d="m512 304.558594c0 87.046875-65.523438 158.800781-149.941406 168.617187-84.429688-9.808593-149.953125-81.558593-149.953125-168.617187s65.523437-158.8125 149.953125-168.617188c84.417968 9.816406 149.941406 81.558594 149.941406 168.617188zm0 0" fill="#bf6a30"/><path d="m426.445312 234.296875c0 13.253906-10.746093 24-24 24-13.253906 0-23.996093-10.746094-23.996093-24s10.742187-23.996094 23.996093-23.996094c13.253907 0 24 10.742188 24 23.996094zm0 0" fill="#4d4d4d"/><path d="m302.695312 288.796875c0 13.25-10.742187 23.996094-23.996093 23.996094-13.253907 0-23.996094-10.746094-23.996094-23.996094 0-13.253906 10.742187-24 23.996094-24 13.253906 0 23.996093 10.746094 23.996093 24zm0 0" fill="#4d4d4d"/><path d="m406.992188 366.980469c0 13.25-10.742188 23.996093-23.996094 23.996093s-23.996094-10.746093-23.996094-23.996093c0-13.253907 10.742188-24 23.996094-24s23.996094 10.746093 23.996094 24zm0 0" fill="#4d4d4d"/><path d="m120.066406 190.648438c0 13.253906-10.742187 24-23.996094 24-13.253906 0-23.996093-10.746094-23.996093-24 0-13.25 10.742187-23.996094 23.996093-23.996094 13.253907 0 23.996094 10.746094 23.996094 23.996094zm0 0" fill="#4d4d4d"/><path d="m233.796875 84.226562c0 13.253907-10.746094 23.996094-24 23.996094s-23.996094-10.742187-23.996094-23.996094c0-13.253906 10.742188-23.996093 23.996094-23.996093s24 10.742187 24 23.996093zm0 0" fill="#4d4d4d"/><g fill="#a55621"><path d="m267.855469 389.234375c-3.277344 0-6.261719-2.105469-7.367188-5.1875-1.152343-3.203125-.027343-6.894531 2.703125-8.917969 5.617188-4.171875 13.734375.960938 12.332032 7.8125-.738282 3.609375-3.96875 6.292969-7.667969 6.292969zm0 0"/><path d="m285.59375 416.371094c-6.820312 0-10.355469-8.539063-5.542969-13.367188 2.203125-2.207031 5.660157-2.886718 8.535157-1.6875 3.078124 1.28125 5.0625 4.472656 4.808593 7.796875-.308593 4.023438-3.753906 7.257813-7.800781 7.257813zm0 0"/><path d="m290.808594 119.011719c-3.132813 0-6.035156-1.945313-7.230469-4.839844-1.300781-3.15625-.367187-6.917969 2.296875-9.066406 5.609375-4.519531 14.199219.660156 12.5625 7.789062-.8125 3.523438-4.003906 6.117188-7.628906 6.117188zm0 0"/><path d="m263.683594 101.273438c-3.207032 0-6.148438-2.035157-7.300782-5.019532-1.230468-3.171875-.203124-6.886718 2.480469-8.976562 5.652344-4.402344 14.058594.855468 12.445313 7.882812-.808594 3.511719-4 6.113282-7.625 6.113282zm0 0"/><path d="m262.640625 130.488281c-3.207031 0-6.148437-2.039062-7.300781-5.019531-1.226563-3.171875-.199219-6.886719 2.480468-8.976562 5.652344-4.402344 14.058594.855468 12.445313 7.882812-.808594 3.511719-4 6.113281-7.625 6.113281zm0 0"/><path d="m252.207031 420.535156c-7.074219 0-10.511719-9.121094-5.117187-13.742187 2.476562-2.125 6.082031-2.488281 8.933594-.902344 2.917968 1.621094 4.511718 5.074219 3.851562 8.351563-.730469 3.609374-3.984375 6.292968-7.667969 6.292968zm0 0"/></g></svg>