<?xml version="1.0" encoding="iso-8859-1"?>
<!-- Generator: Adobe Illustrator 19.0.0, SVG Export Plug-In . SVG Version: 6.00 Build 0)  -->
<svg version="1.1" id="Capa_1" xmlns="http://www.w3.org/2000/svg" xmlns:xlink="http://www.w3.org/1999/xlink" x="0px" y="0px"
	 viewBox="0 0 512.001 512.001" style="enable-background:new 0 0 512.001 512.001;" xml:space="preserve">
<circle style="fill:#F7F0E6;" cx="256.001" cy="256.001" r="256"/>
<circle style="fill:#EEE2D4;" cx="256.001" cy="256.001" r="220.69"/>
<circle style="fill:#D78255;" cx="256.001" cy="256.001" r="203.03"/>
<circle style="fill:#FF915A;" cx="256.001" cy="256.001" r="176.55"/>
<g>
	<circle style="fill:#FFA069;" cx="286.161" cy="309.151" r="56.902"/>
	<circle style="fill:#FFA069;" cx="305.291" cy="177.471" r="36.511"/>
	<circle style="fill:#FFA069;" cx="175.751" cy="307.131" r="29.462"/>
	<circle style="fill:#FFA069;" cx="375.851" cy="236.781" r="24.04"/>
</g>
<path style="fill:#ADDF6E;" d="M268.518,403.863c-3.414,0-6.664-1.983-8.103-5.319l-9.569-22.069
	c-1.94-4.474,0.112-9.672,4.586-11.603c4.483-1.974,9.672,0.121,11.603,4.586l9.569,22.069c1.94,4.474-0.112,9.672-4.586,11.603
	C270.88,403.63,269.682,403.863,268.518,403.863z"/>
<path style="fill:#FFDC8C;" d="M306.027,369.285c-1.147,0-2.319-0.224-3.44-0.698l-19.129-8.086
	c-4.491-1.897-6.586-7.078-4.69-11.569c1.897-4.483,7.095-6.586,11.569-4.69l19.129,8.086c4.491,1.897,6.586,7.078,4.69,11.569
	C312.734,367.26,309.467,369.285,306.027,369.285z"/>
<path style="fill:#B46E55;" d="M258.217,345.751c-0.362,0-0.733-0.026-1.103-0.069c-4.836-0.603-8.267-5.017-7.664-9.853
	l3.681-29.431c0.603-4.836,4.974-8.241,9.853-7.664c4.836,0.603,8.267,5.017,7.664,9.853l-3.681,29.431
	C266.406,342.484,262.605,345.751,258.217,345.751z"/>
<path style="fill:#CDE16E;" d="M286.174,332.51c-2.569,0-5.112-1.112-6.853-3.259c-3.078-3.784-2.509-9.345,1.276-12.414
	l11.767-9.569c3.793-3.086,9.345-2.5,12.414,1.276c3.078,3.784,2.509,9.345-1.276,12.414l-11.767,9.569
	C290.096,331.863,288.13,332.51,286.174,332.51z"/>
<g>
	<path style="fill:#B46E55;" d="M339.863,367.079c-3.517,0-6.845-2.121-8.216-5.595l-9.56-24.276
		c-1.784-4.534,0.448-9.664,4.983-11.448c4.526-1.767,9.655,0.448,11.448,4.983l9.56,24.276c1.784,4.534-0.448,9.664-4.983,11.448
		C342.036,366.88,340.941,367.079,339.863,367.079z"/>
	<path style="fill:#B46E55;" d="M326.622,303.82c-0.81,0-1.647-0.112-2.474-0.353c-4.681-1.362-7.362-6.267-6-10.948l5.147-17.655
		c1.362-4.672,6.207-7.397,10.948-6c4.681,1.362,7.362,6.267,6,10.948l-5.147,17.655C333.975,301.32,330.449,303.82,326.622,303.82z
		"/>
</g>
<g>
	<path style="fill:#FFDC8C;" d="M301.613,293.518c-2.147,0-4.302-0.776-6-2.353l-19.862-18.388
		c-3.578-3.31-3.793-8.897-0.474-12.474c3.293-3.586,8.888-3.802,12.474-0.474l19.862,18.388c3.578,3.31,3.793,8.897,0.474,12.474
		C306.355,292.57,303.984,293.518,301.613,293.518z"/>
	<path style="fill:#FFDC8C;" d="M231.725,303.079c-2.328,0-4.647-0.914-6.388-2.733c-3.362-3.526-3.233-9.112,0.293-12.483
		l16.181-15.448c3.517-3.362,9.103-3.241,12.483,0.293c3.362,3.526,3.233,9.112-0.293,12.483l-16.181,15.448
		C236.113,302.268,233.915,303.079,231.725,303.079z"/>
	<path style="fill:#FFDC8C;" d="M219.958,357.518c-0.828,0-1.672-0.112-2.509-0.362c-4.672-1.388-7.336-6.293-5.957-10.974
		l5.879-19.862c1.388-4.664,6.284-7.345,10.974-5.957c4.672,1.388,7.336,6.293,5.957,10.974l-5.879,19.862
		C227.286,355.035,223.768,357.518,219.958,357.518z"/>
</g>
<path style="fill:#B46E55;" d="M231.001,394.303c-0.172,0-0.345-0.009-0.517-0.017l-25.75-1.474
	c-4.862-0.276-8.586-4.448-8.302-9.319c0.276-4.871,4.534-8.569,9.319-8.302l25.75,1.474c4.862,0.276,8.586,4.448,8.302,9.319
	C239.536,390.673,235.648,394.303,231.001,394.303z"/>
<g>
	<path style="fill:#ADDF6E;" d="M319.26,409.751c-1.371,0-2.767-0.319-4.078-1l-16.922-8.828c-4.319-2.259-5.991-7.586-3.741-11.914
		c2.25-4.319,7.569-6,11.914-3.741l16.922,8.828c4.319,2.259,5.991,7.586,3.741,11.914
		C325.518,408.027,322.441,409.751,319.26,409.751z"/>
	<path style="fill:#ADDF6E;" d="M372.242,373.699c-0.75,0-1.509-0.095-2.267-0.293c-4.716-1.25-7.526-6.078-6.276-10.793
		l6.621-25.009c1.259-4.716,6.095-7.509,10.793-6.276c4.716,1.25,7.526,6.078,6.276,10.793l-6.621,25.009
		C379.717,371.087,376.148,373.699,372.242,373.699z"/>
</g>
<path style="fill:#FFDC8C;" d="M356.786,321.475c-2.328,0-4.647-0.914-6.388-2.733c-3.362-3.526-3.233-9.112,0.293-12.483
	l16.181-15.448c3.517-3.362,9.103-3.241,12.483,0.293c3.362,3.526,3.233,9.112-0.293,12.483l-16.181,15.448
	C361.174,320.665,358.975,321.475,356.786,321.475z"/>
<path style="fill:#B46E55;" d="M402.38,317.794c-1.681,0-3.379-0.483-4.888-1.483c-4.06-2.707-5.155-8.181-2.448-12.241
	l13.241-19.862c2.69-4.06,8.164-5.155,12.241-2.448c4.06,2.707,5.155,8.181,2.448,12.241l-13.241,19.862
	C408.036,316.415,405.234,317.794,402.38,317.794z"/>
<path style="fill:#ADDF6E;" d="M361.941,273.656c-0.19,0-0.388-0.009-0.578-0.017c-4.862-0.319-8.552-4.517-8.241-9.379
	l1.474-22.802c0.31-4.862,4.629-8.517,9.379-8.241c4.862,0.319,8.552,4.517,8.241,9.379l-1.474,22.802
	C370.441,270.07,366.553,273.656,361.941,273.656z"/>
<path style="fill:#CDE16E;" d="M397.975,268.51c-0.845,0-1.707-0.121-2.56-0.379c-4.664-1.414-7.302-6.345-5.888-11.009
	l7.362-24.276c1.414-4.655,6.319-7.31,11.009-5.888c4.664,1.414,7.302,6.345,5.888,11.009l-7.362,24.276
	C405.268,266.053,401.768,268.51,397.975,268.51z"/>
<path style="fill:#FFDC8C;" d="M384.01,224.372c-0.164,0-0.336-0.009-0.5-0.017l-26.483-1.474c-4.871-0.267-8.595-4.431-8.319-9.302
	c0.267-4.862,4.422-8.733,9.302-8.319l26.483,1.474c4.871,0.267,8.595,4.431,8.319,9.302
	C392.553,220.734,388.656,224.372,384.01,224.372z"/>
<path style="fill:#B46E55;" d="M327.355,246.441c-2.19,0-4.388-0.81-6.095-2.44l-16.181-15.448
	c-3.526-3.371-3.655-8.957-0.293-12.483c3.379-3.526,8.966-3.647,12.483-0.293l16.181,15.448c3.526,3.371,3.655,8.957,0.293,12.483
	C332.001,245.527,329.682,246.441,327.355,246.441z"/>
<path style="fill:#ADDF6E;" d="M294.984,250.113c-1.629,0-3.276-0.448-4.75-1.388l-18.397-11.767
	c-4.103-2.629-5.302-8.086-2.681-12.198c2.629-4.103,8.086-5.302,12.198-2.681l18.397,11.767c4.103,2.629,5.302,8.086,2.681,12.198
	C300.742,248.673,297.898,250.113,294.984,250.113z"/>
<path style="fill:#B46E55;" d="M224.38,265.561c-3.069,0-6.043-1.595-7.672-4.448c-2.422-4.233-0.948-9.629,3.284-12.043
	l20.595-11.767c4.224-2.44,9.621-0.948,12.043,3.284s0.948,9.629-3.284,12.043l-20.595,11.767
	C227.372,265.191,225.863,265.561,224.38,265.561z"/>
<path style="fill:#FFDC8C;" d="M255.268,435.492c-1.026,0-2.06-0.172-3.069-0.552l-25.75-9.56
	c-4.578-1.698-6.905-6.776-5.207-11.345c1.69-4.578,6.81-6.914,11.345-5.207l25.75,9.56c4.578,1.698,6.905,6.776,5.207,11.345
	C262.225,433.294,258.855,435.492,255.268,435.492z"/>
<path style="fill:#CDE16E;" d="M328.087,206.717c-4.043,0-7.698-2.802-8.612-6.914l-4.414-19.862
	c-1.052-4.759,1.948-9.474,6.707-10.534c4.741-1.017,9.474,1.948,10.534,6.707l4.414,19.862c1.052,4.759-1.948,9.474-6.707,10.534
	C329.363,206.648,328.725,206.717,328.087,206.717z"/>
<path style="fill:#B46E55;" d="M365.605,196.415c-4.009,0-7.638-2.75-8.586-6.819l-5.155-22.069c-1.112-4.75,1.836-9.5,6.586-10.603
	c4.75-1.095,9.5,1.845,10.603,6.586l5.155,22.069c1.112,4.75-1.836,9.5-6.586,10.603
	C366.949,196.337,366.268,196.415,365.605,196.415z"/>
<path style="fill:#ADDF6E;" d="M404.605,199.354c-3.138,0-6.172-1.672-7.767-4.621l-9.56-17.655
	c-2.328-4.293-0.733-9.647,3.552-11.966c4.284-2.328,9.647-0.733,11.966,3.552l9.56,17.655c2.328,4.293,0.733,9.647-3.552,11.966
	C407.467,199.01,406.027,199.354,404.605,199.354z"/>
<path style="fill:#FFDC8C;" d="M272.924,205.242c-3.828,0-7.353-2.509-8.474-6.362c-1.362-4.69,1.328-9.586,6.009-10.94
	l22.802-6.621c4.741-1.379,9.578,1.336,10.94,6.009c1.362,4.69-1.328,9.586-6.009,10.94l-22.802,6.621
	C274.561,205.13,273.734,205.242,272.924,205.242z"/>
<path style="fill:#ADDF6E;" d="M328.82,158.165c-1.707,0-3.431-0.491-4.957-1.526c-4.026-2.741-5.078-8.233-2.336-12.267
	l12.509-18.397c2.741-4.026,8.216-5.078,12.267-2.336c4.026,2.741,5.078,8.233,2.336,12.267l-12.509,18.397
	C334.424,156.811,331.648,158.165,328.82,158.165z"/>
<path style="fill:#B46E55;" d="M296.449,164.785c-1.224,0-2.474-0.259-3.664-0.802l-25.741-11.776
	c-4.431-2.026-6.379-7.267-4.353-11.698c2.026-4.422,7.259-6.379,11.698-4.353l25.741,11.776c4.431,2.026,6.379,7.267,4.353,11.698
	C303.001,162.872,299.803,164.785,296.449,164.785z"/>
<path style="fill:#FFDC8C;" d="M225.113,116.967c-2.595,0-5.155-1.138-6.905-3.31l-11.767-14.716
	c-3.043-3.81-2.422-9.371,1.379-12.414c3.819-3.043,9.362-2.405,12.414,1.379l11.767,14.716c3.043,3.81,2.422,9.371-1.379,12.414
	C228.992,116.337,227.044,116.967,225.113,116.967z"/>
<path style="fill:#ADDF6E;" d="M255.277,109.613c-2.552,0-5.078-1.095-6.819-3.216c-3.103-3.759-2.569-9.328,1.198-12.422
	l12.5-10.302c3.75-3.103,9.328-2.56,12.422,1.198c3.103,3.759,2.569,9.328-1.198,12.422l-12.5,10.302
	C259.242,108.949,257.251,109.613,255.277,109.613z"/>
<path style="fill:#FFDC8C;" d="M297.932,127.268c-2.328,0-4.655-0.914-6.388-2.741c-3.371-3.526-3.233-9.112,0.302-12.474
	l15.448-14.716c3.517-3.362,9.112-3.241,12.474,0.302c3.371,3.526,3.233,9.112-0.302,12.474l-15.448,14.716
	C302.311,126.458,300.122,127.268,297.932,127.268z"/>
<path style="fill:#B46E55;" d="M238.355,207.449c-0.586,0-1.19-0.06-1.784-0.181c-4.776-0.983-7.853-5.647-6.871-10.422
	l5.147-25.009c0.991-4.776,5.672-7.836,10.422-6.871c4.776,0.983,7.853,5.647,6.871,10.422l-5.147,25.009
	C246.13,204.579,242.458,207.449,238.355,207.449z"/>
<path style="fill:#FFDC8C;" d="M215.556,230.995c-2.879,0-5.707-1.405-7.397-4l-12.509-19.129c-2.672-4.078-1.526-9.552,2.56-12.216
	c4.06-2.672,9.56-1.526,12.216,2.56l12.509,19.129c2.672,4.078,1.526,9.552-2.56,12.216
	C218.892,230.53,217.211,230.995,215.556,230.995z"/>
<path style="fill:#CDE16E;" d="M178.751,257.475c-4.698,0-8.612-3.716-8.81-8.457c-0.207-4.871,3.578-8.983,8.448-9.19l17.655-0.741
	c4.828-0.147,8.991,3.578,9.19,8.448c0.207,4.871-3.578,8.983-8.448,9.19l-17.655,0.741
	C179.001,257.475,178.88,257.475,178.751,257.475z"/>
<path style="fill:#B46E55;" d="M197.88,311.173c-3.957,0-7.552-2.672-8.552-6.69l-6.62-26.482c-1.19-4.724,1.69-9.517,6.422-10.698
	c4.724-1.207,9.517,1.69,10.698,6.422l6.621,26.483c1.19,4.724-1.69,9.517-6.422,10.698
	C199.311,311.087,198.587,311.173,197.88,311.173z"/>
<path style="fill:#FFDC8C;" d="M172.139,358.251c-2.388,0-4.767-0.966-6.509-2.862c-3.293-3.595-3.052-9.181,0.543-12.474
	l17.655-16.181c3.603-3.293,9.181-3.052,12.474,0.543s3.052,9.181-0.543,12.474l-17.655,16.181
	C176.406,357.484,174.268,358.251,172.139,358.251z"/>
<path style="fill:#CDE16E;" d="M178.018,413.423c-4.336,0-8.121-3.198-8.733-7.612l-3.681-26.483
	c-0.672-4.828,2.698-9.284,7.526-9.957c4.802-0.716,9.284,2.698,9.957,7.526l3.681,26.483c0.672,4.828-2.698,9.284-7.526,9.957
	C178.829,413.398,178.424,413.423,178.018,413.423z"/>
<path style="fill:#B46E55;" d="M147.13,367.82c-1.147,0-2.302-0.216-3.414-0.69l-22.81-9.569c-4.5-1.879-6.612-7.06-4.724-11.552
	c1.879-4.509,7.078-6.629,11.552-4.724l22.81,9.569c4.5,1.879,6.612,7.06,4.724,11.552
	C153.855,365.785,150.579,367.82,147.13,367.82z"/>
<path style="fill:#ADDF6E;" d="M151.553,321.475c-3.017,0-5.957-1.552-7.603-4.336c-2.483-4.198-1.095-9.612,3.103-12.086
	l16.181-9.569c4.19-2.483,9.612-1.086,12.086,3.103c2.483,4.198,1.095,9.612-3.103,12.086l-16.181,9.569
	C154.63,321.079,153.079,321.475,151.553,321.475z"/>
<path style="fill:#B46E55;" d="M119.898,313.38c-1.828,0-3.664-0.56-5.25-1.733l-19.862-14.716
	c-3.914-2.905-4.733-8.431-1.836-12.353c2.905-3.905,8.422-4.741,12.353-1.836l19.862,14.716c3.914,2.905,4.733,8.431,1.836,12.353
	C125.268,312.148,122.605,313.38,119.898,313.38z"/>
<path style="fill:#FFDC8C;" d="M148.605,277.337c-0.603,0-1.216-0.06-1.828-0.19l-27.948-5.888
	c-4.767-1.009-7.828-5.69-6.819-10.457s5.707-7.828,10.457-6.819l27.948,5.888c4.767,1.009,7.828,5.69,6.819,10.457
	C156.355,274.484,152.691,277.337,148.605,277.337z"/>
<path style="fill:#B46E55;" d="M94.889,254.527c-1.966,0-3.94-0.655-5.586-2c-3.767-3.086-4.328-8.647-1.233-12.422l13.241-16.181
	c3.069-3.767,8.629-4.328,12.422-1.233c3.767,3.086,4.328,8.647,1.233,12.422l-13.241,16.181
	C99.984,253.423,97.449,254.527,94.889,254.527z"/>
<path style="fill:#ADDF6E;" d="M100.053,205.242c-0.603,0-1.216-0.06-1.828-0.19c-4.776-1.009-7.828-5.69-6.819-10.457l2.948-13.974
	c1.009-4.767,5.707-7.836,10.457-6.819c4.776,1.009,7.828,5.69,6.819,10.457l-2.948,13.974
	C107.803,202.389,104.139,205.242,100.053,205.242z"/>
<path style="fill:#FFDC8C;" d="M350.174,409.01c-0.681,0-1.362-0.078-2.052-0.241c-4.741-1.129-7.672-5.888-6.543-10.629
	l3.672-15.448c1.138-4.741,5.905-7.655,10.629-6.543c4.741,1.129,7.672,5.888,6.543,10.629l-3.672,15.448
	C357.786,406.277,354.165,409.01,350.174,409.01z"/>
<path style="fill:#B46E55;" d="M181.691,119.906c-1.466,0-2.948-0.362-4.319-1.138c-4.25-2.388-5.759-7.767-3.362-12.017
	l6.621-11.767c2.388-4.25,7.759-5.784,12.017-3.362c4.25,2.388,5.759,7.767,3.362,12.017l-6.621,11.767
	C187.768,118.285,184.777,119.906,181.691,119.906z"/>
<path style="fill:#EEE2D4;" d="M144.279,207.459c0.492,2.07,1.223,5.216,4.154,8.439c11.758-31.464,36.864-56.321,68.491-67.741
	c-2.456-1.907-5.501-3.013-9.623-3.72c-2.115-0.363-4.157-0.863-6.203-1.107c-22.975-2.731-44.725-11.765-61.085-28.124
	L29.982,5.174C22.407-2.412,9.628-1.655,3.092,7.445C-2.043,14.592-0.513,24.61,5.71,30.832L115.049,140.17
	c16.359,16.36,25.394,38.11,28.124,61.085C143.416,203.302,143.782,205.371,144.279,207.459z"/>
<path style="fill:#E0D0BB;" d="M144.279,207.459c0.492,2.07,1.223,5.216,4.154,8.439c5.068-13.561,12.599-25.88,22.093-36.453
	c-6.557-12.58-14.781-24.27-25.019-34.509L5.425,4.854c-0.83,0.783-1.633,1.615-2.334,2.591c-5.135,7.147-3.605,17.165,2.618,23.387
	L115.048,140.17c16.359,16.36,25.394,38.11,28.124,61.085C143.416,203.302,143.782,205.371,144.279,207.459z"/>
<path style="fill:#D78255;" d="M143.517,241.699c-0.586,0-1.181-0.056-1.776-0.181c-4.776-0.974-7.862-5.638-6.879-10.414
	c9.716-47.526,46.586-85.086,93.931-95.694c4.759-1.06,9.474,1.927,10.543,6.681c1.069,4.759-1.922,9.478-6.681,10.543
	c-40.569,9.095-72.164,41.28-80.5,82.004C151.301,238.82,147.62,241.699,143.517,241.699z"/>
<g>
</g>
<g>
</g>
<g>
</g>
<g>
</g>
<g>
</g>
<g>
</g>
<g>
</g>
<g>
</g>
<g>
</g>
<g>
</g>
<g>
</g>
<g>
</g>
<g>
</g>
<g>
</g>
<g>
</g>
</svg>
